<svg xmlns="http://www.w3.org/2000/svg" width="40" height="40" viewBox="0 0 24 24" fill="white"><path d="M12 .5C5.65.5.5 5.65.5 12c0 5.09 3.29 9.4 7.86 10.94.58.11.79-.25.79-.56 0-.27-.01-1.16-.01-2.11-3.2.7-3.88-1.38-3.88-1.38-.53-1.35-1.3-1.71-1.3-1.71-1.06-.72.08-.71.08-.71 1.17.08 1.78 1.2 1.78 1.2 1.04 1.78 2.73 1.27 3.4.97.1-.75.41-1.27.74-1.56-2.55-.29-5.23-1.27-5.23-5.65 0-1.25.45-2.27 1.19-3.07-.12-.29-.52-1.46.11-3.04 0 0 .97-.31 3.18 1.17a11.05 11.05 0 012.9-.39c.98.01 1.96.13 2.9.39 2.2-1.48 3.17-1.17 3.17-1.17.63 1.58.23 2.75.11 3.04.74.8 1.19 1.82 1.19 3.07 0 4.39-2.69 5.35-5.25 5.63.43.37.81 1.1.81 2.22 0 1.6-.01 2.88-.01 3.27 0 .31.21.67.8.56A10.51 10.51 0 0023.5 12C23.5 5.65 18.35.5 12 .5z"></path></svg>
