<svg xmlns="http://www.w3.org/2000/svg" width="40" height="40" viewBox="0 0 24 24" fill="white"><path d="M12 2.163c3.204 0 3.584.012 4.85.07 1.206.056 2.005.24 2.466.403a4.92 4.92 0 011.725 1.004 4.918 4.918 0 011.004 1.725c.163.461.347 1.26.403 2.466.058 1.266.07 1.646.07 4.85s-.012 3.584-.07 4.85c-.056 1.206-.24 2.005-.403 2.466a4.92 4.92 0 01-1.004 1.725 4.918 4.918 0 01-1.725 1.004c-.461.163-1.26.347-2.466.403-1.266.058-1.646.07-4.85.07s-3.584-.012-4.85-.07c-1.206-.056-2.005-.24-2.466-.403a4.918 4.918 0 01-1.725-1.004 4.918 4.918 0 01-1.004-1.725c-.163-.461-.347-1.26-.403-2.466C2.175 15.584 2.163 15.204 2.163 12s.012-3.584.07-4.85c.056-1.206.24-2.005.403-2.466a4.92 4.92 0 011.004-1.725A4.918 4.918 0 015.365 2.636c.461-.163 1.26-.347 2.466-.403C8.416 2.175 8.796 2.163 12 2.163zm0-2.163C8.741 0 8.332.012 7.052.07 5.777.128 4.642.304 3.677.678 2.675 1.064 1.811 1.636 1.05 2.397c-.761.761-1.333 1.625-1.719 2.627-.374.965-.55 2.1-.608 3.375C-.012 8.332 0 8.741 0 12c0 3.259.012 3.668.07 4.948.058 1.275.234 2.41.608 3.375.386 1.002.958 1.866 1.719 2.627.761.761 1.625 1.333 2.627 1.719.965.374 2.1.55 3.375.608C8.332 23.988 8.741 24 12 24c3.259 0 3.668-.012 4.948-.07 1.275-.058 2.41-.234 3.375-.608 1.002-.386 1.866-.958 2.627-1.719.761-.761 1.333-1.625 1.719-2.627.374-.965.55-2.1.608-3.375.058-1.28.07-1.689.07-4.948 0-3.259-.012-3.668-.07-4.948-.058-1.275-.234-2.41-.608-3.375-.386-1.002-.958-1.866-1.719-2.627-.761-.761-1.625-1.333-2.627-1.719-.965-.374-2.1-.55-3.375-.608C15.668.012 15.259 0 12 0z"></path><path d="M12 5.838A6.162 6.162 0 005.838 12 6.162 6.162 0 0012 18.162 6.162 6.162 0 0018.162 12 6.162 6.162 0 0012 5.838zm0 10.162A4 4 0 118 12a4 4 0 014 4zM18.406 4.594a1.44 1.44 0 11-2.88 0 1.44 1.44 0 012.88 0z"></path></svg>
